Input #0, mov,mp4,m4a,3gp,3g2,mj2, from '/home/runner/work/Auto_Browser/Auto_Browser/recordings/oncc/latest.mp4':
  Metadata:
    major_brand     : isom
    minor_version   : 512
    compatible_brands: isomiso2avc1mp41
    encoder         : Lavf60.16.100
  Duration: 00:01:01.00, start: 0.000000, bitrate: 547 kb/s
  Stream #0:0[0x1](und): Video: h264 (High) (avc1 / 0x31637661), yuv420p(progressive), 1366x900, 544 kb/s, 25 fps, 25 tbr, 12800 tbn (default)
    Metadata:
      handler_name    : VideoHandler
      vendor_id       : [0][0][0][0]
      encoder         : Lavc60.31.102 libx264
Stream mapping:
  Stream #0:0 -> #0:0 (h264 (native) -> vp8 (libvpx))
Press [q] to stop, [?] for help
[libvpx @ 0x5564eaa994c0] v1.14.0
Output #0, webm, to '/home/runner/work/Auto_Browser/Auto_Browser/recordings/oncc/latest.webm':
  Metadata:
    major_brand     : isom
    minor_version   : 512
    compatible_brands: isomiso2avc1mp41
    encoder         : Lavf60.16.100
  Stream #0:0(und): Video: vp8, yuv420p(progressive), 1366x900, q=2-31, 1800 kb/s, 25 fps, 1k tbn (default)
    Metadata:
      handler_name    : VideoHandler
      vendor_id       : [0][0][0][0]
      encoder         : Lavc60.31.102 libvpx
    Side data:
      cpb: bitrate max/min/avg: 0/0/0 buffer size: 0 vbv_delay: N/A
frame=    0 fps=0.0 q=11.0 size=       0kB time=00:00:00.00 bitrate=N/A speed=   0x    frame=   34 fps=0.0 q=10.0 size=       1kB time=00:00:01.36 bitrate=   3.7kbits/s speed=2.64x    frame=   70 fps= 68 q=11.0 size=       1kB time=00:00:02.80 bitrate=   1.8kbits/s speed=2.73x    frame=  106 fps= 69 q=12.0 size=       1kB time=00:00:04.24 bitrate=   1.2kbits/s speed=2.76x    frame=  138 fps= 67 q=19.0 size=    1024kB time=00:00:05.52 bitrate=1519.7kbits/s speed=2.69x    frame=  171 fps= 67 q=13.0 size=    1024kB time=00:00:06.84 bitrate=1226.4kbits/s speed=2.67x    frame=  201 fps= 66 q=13.0 size=    1024kB time=00:00:08.04 bitrate=1043.4kbits/s speed=2.62x    frame=  232 fps= 65 q=12.0 size=    1024kB time=00:00:09.28 bitrate= 903.9kbits/s speed=2.59x    frame=  262 fps= 64 q=21.0 size=    2304kB time=00:00:10.48 bitrate=1801.0kbits/s speed=2.56x    frame=  294 fps= 64 q=12.0 size=    2304kB time=00:00:11.76 bitrate=1605.0kbits/s speed=2.56x    frame=  324 fps= 64 q=13.0 size=    2304kB time=00:00:12.96 bitrate=1456.4kbits/s speed=2.54x    frame=  356 fps= 63 q=13.0 size=    2304kB time=00:00:14.24 bitrate=1325.4kbits/s speed=2.54x    frame=  387 fps= 63 q=19.0 size=    3328kB time=00:00:15.48 bitrate=1761.2kbits/s speed=2.53x    frame=  418 fps= 63 q=21.0 size=    3328kB time=00:00:16.72 bitrate=1630.6kbits/s speed=2.51x    frame=  449 fps= 63 q=11.0 size=    3328kB time=00:00:17.96 bitrate=1518.0kbits/s speed=2.51x    frame=  481 fps= 63 q=11.0 size=    3328kB time=00:00:19.24 bitrate=1417.0kbits/s speed=2.51x    frame=  512 fps= 63 q=51.0 size=    4608kB time=00:00:20.48 bitrate=1843.2kbits/s speed= 2.5x    frame=  542 fps= 62 q=12.0 size=    4608kB time=00:00:21.68 bitrate=1741.2kbits/s speed=2.49x    frame=  569 fps= 62 q=10.0 size=    4608kB time=00:00:22.76 bitrate=1658.6kbits/s speed=2.47x    frame=  603 fps= 62 q=12.0 size=    4608kB time=00:00:24.12 bitrate=1565.0kbits/s speed=2.48x    frame=  636 fps= 62 q=10.0 size=    4608kB time=00:00:25.44 bitrate=1483.8kbits/s speed=2.49x    frame=  668 fps= 62 q=11.0 size=    5632kB time=00:00:26.72 bitrate=1726.7kbits/s speed=2.49x    frame=  700 fps= 62 q=10.0 size=    5632kB time=00:00:28.00 bitrate=1647.8kbits/s speed=2.49x    frame=  731 fps= 62 q=10.0 size=    5632kB time=00:00:29.24 bitrate=1577.9kbits/s speed=2.49x    frame=  762 fps= 62 q=11.0 size=    5632kB time=00:00:30.48 bitrate=1513.7kbits/s speed=2.49x    frame=  793 fps= 62 q=13.0 size=    6912kB time=00:00:31.72 bitrate=1785.1kbits/s speed=2.48x    frame=  826 fps= 62 q=10.0 size=    6912kB time=00:00:33.04 bitrate=1713.8kbits/s speed=2.49x    frame=  859 fps= 62 q=10.0 size=    6912kB time=00:00:34.36 bitrate=1647.9kbits/s speed=2.49x    frame=  892 fps= 62 q=10.0 size=    6912kB time=00:00:35.68 bitrate=1587.0kbits/s speed= 2.5x    frame=  923 fps= 62 q=11.0 size=    7936kB time=00:00:36.92 bitrate=1760.9kbits/s speed=2.49x    frame=  953 fps= 62 q=12.0 size=    7936kB time=00:00:38.12 bitrate=1705.4kbits/s speed=2.49x    frame=  986 fps= 62 q=10.0 size=    7936kB time=00:00:39.44 bitrate=1648.4kbits/s speed=2.49x    frame= 1019 fps= 62 q=10.0 size=    7936kB time=00:00:40.76 bitrate=1595.0kbits/s speed= 2.5x    frame= 1050 fps= 62 q=11.0 size=    9216kB time=00:00:42.00 bitrate=1797.6kbits/s speed= 2.5x    frame= 1080 fps= 62 q=12.0 size=    9216kB time=00:00:43.20 bitrate=1747.6kbits/s speed=2.49x    frame= 1113 fps= 62 q=13.0 size=    9216kB time=00:00:44.52 bitrate=1695.8kbits/s speed=2.49x    frame= 1141 fps= 62 q=10.0 size=    9216kB time=00:00:45.64 bitrate=1654.2kbits/s speed=2.49x    frame= 1172 fps= 62 q=11.0 size=   10240kB time=00:00:46.88 bitrate=1789.4kbits/s speed=2.49x    frame= 1205 fps= 62 q=12.0 size=   10240kB time=00:00:48.20 bitrate=1740.4kbits/s speed=2.49x    frame= 1237 fps= 62 q=10.0 size=   10240kB time=00:00:49.48 bitrate=1695.4kbits/s speed=2.49x    frame= 1268 fps= 62 q=10.0 size=   10240kB time=00:00:50.72 bitrate=1653.9kbits/s speed=2.49x    frame= 1300 fps= 62 q=11.0 size=   11520kB time=00:00:52.00 bitrate=1814.8kbits/s speed=2.49x    frame= 1327 fps= 62 q=18.0 size=   11520kB time=00:00:53.08 bitrate=1777.9kbits/s speed=2.48x    frame= 1358 fps= 62 q=18.0 size=   11520kB time=00:00:54.32 bitrate=1737.3kbits/s speed=2.48x    frame= 1388 fps= 62 q=18.0 size=   11520kB time=00:00:55.52 bitrate=1699.8kbits/s speed=2.48x    frame= 1417 fps= 62 q=31.0 size=   12800kB time=00:00:56.68 bitrate=1850.0kbits/s speed=2.48x    frame= 1447 fps= 62 q=15.0 size=   12800kB time=00:00:57.88 bitrate=1811.6kbits/s speed=2.47x    frame= 1477 fps= 62 q=15.0 size=   12800kB time=00:00:59.08 bitrate=1774.8kbits/s speed=2.47x    frame= 1506 fps= 62 q=18.0 size=   12800kB time=00:01:00.24 bitrate=1740.7kbits/s speed=2.47x    [out#0/webm @ 0x5564ea9bb540] video:13903kB audio:0kB subtitle:0kB other streams:0kB global headers:0kB muxing overhead: 0.083245%
frame= 1525 fps= 62 q=14.0 Lsize=   13914kB time=00:01:00.96 bitrate=1869.8kbits/s speed=2.46x    
